<svg width="96" height="96" viewBox="0 0 96 96" fill="none" xmlns="http://www.w3.org/2000/svg">
  <path d="M19.3 42.0002C19.7 41.6002 20.2 41.4002 20.8 41.4002H88.3C89.4 41.4002 90 42.7002 89.2 43.5002L76.7 56.0002C76.3 56.4002 75.8 56.6002 75.2 56.6002H7.69999C6.59999 56.6002 5.99999 55.3002 6.79999 54.5002L19.3 42.0002Z" fill="#00ff00"/>
  <path d="M19.3 68.9002C19.7 68.5002 20.2 68.3002 20.8 68.3002H88.3C89.4 68.3002 90 69.6002 89.2 70.4002L76.7 82.9002C76.3 83.3002 75.8 83.5002 75.2 83.5002H7.69999C6.59999 83.5002 5.99999 82.2002 6.79999 81.4002L19.3 68.9002Z" fill="#00ff00"/>
  <path d="M76.7 15.1002C76.3 14.7002 75.8 14.5002 75.2 14.5002H7.69999C6.59999 14.5002 5.99999 15.8002 6.79999 16.6002L19.3 29.1002C19.7 29.5002 20.2 29.7002 20.8 29.7002H88.3C89.4 29.7002 90 28.4002 89.2 27.6002L76.7 15.1002Z" fill="#00ff00"/>
</svg> 